<svg xmlns="http://www.w3.org/2000/svg" xmlns:xlink="http://www.w3.org/1999/xlink" version="1.1" width="256" height="256" viewBox="0 0 256 256" xml:space="preserve">
<g style="stroke: none; stroke-width: 0; stroke-dasharray: none; stroke-linecap: butt; stroke-linejoin: miter; stroke-miterlimit: 10; fill: none; fill-rule: nonzero; opacity: 1;" transform="translate(1.4065934065934016 1.4065934065934016) scale(2.81 2.81)">
	<path d="M 19.31 72.394 H 1 c -0.552 0 -1 -0.447 -1 -1 s 0.448 -1 1 -1 h 18.31 c 6.283 0 12.313 -2.312 16.978 -6.51 c 1.413 -1.271 2.685 -2.701 3.781 -4.255 c 0.318 -0.45 0.942 -0.559 1.394 -0.239 c 0.451 0.318 0.559 0.942 0.24 1.394 c -1.183 1.675 -2.555 3.218 -4.078 4.587 C 32.592 69.899 26.087 72.394 19.31 72.394 z" style="stroke: none; stroke-width: 1; stroke-dasharray: none; stroke-linecap: butt; stroke-linejoin: miter; stroke-miterlimit: 10; fill: rgb(255,255,255); fill-rule: nonzero; opacity: 1;" transform=" matrix(1 0 0 1 0 0) " stroke-linecap="round"/>
	<path d="M 89.662 17.857 L 78.311 7.824 c -0.296 -0.262 -0.716 -0.324 -1.073 -0.163 c -0.358 0.162 -0.589 0.519 -0.589 0.912 v 9.034 h -4.552 c -9.21 0 -17.75 4.588 -22.846 12.273 c -0.306 0.46 -0.18 1.081 0.28 1.386 c 0.17 0.113 0.362 0.167 0.552 0.167 c 0.324 0 0.642 -0.157 0.834 -0.447 c 4.725 -7.125 12.643 -11.379 21.18 -11.379 h 4.552 v 9.034 c 0 0.393 0.23 0.75 0.589 0.912 c 0.132 0.06 0.271 0.088 0.411 0.088 c 0.239 0 0.476 -0.086 0.662 -0.251 l 11.352 -10.034 C 89.877 19.166 90 18.893 90 18.606 S 89.877 18.047 89.662 17.857 z M 78.648 26.421 v -15.63 l 8.842 7.815 L 78.648 26.421 z" style="stroke: none; stroke-width: 1; stroke-dasharray: none; stroke-linecap: butt; stroke-linejoin: miter; stroke-miterlimit: 10; fill: rgb(255,255,255); fill-rule: nonzero; opacity: 1;" transform=" matrix(1 0 0 1 0 0) " stroke-linecap="round"/>
	<path d="M 89.662 70.645 L 78.311 60.61 c -0.296 -0.262 -0.716 -0.322 -1.073 -0.163 c -0.358 0.162 -0.589 0.519 -0.589 0.912 v 9.034 h -4.552 c -14.002 0 -25.394 -11.392 -25.394 -25.394 c 0 -15.105 -12.289 -27.394 -27.394 -27.394 H 1 c -0.552 0 -1 0.448 -1 1 s 0.448 1 1 1 h 18.31 c 14.002 0 25.394 11.392 25.394 25.394 c 0 15.104 12.289 27.394 27.394 27.394 h 4.552 v 9.033 c 0 0.394 0.23 0.75 0.589 0.912 c 0.132 0.059 0.271 0.088 0.411 0.088 c 0.239 0 0.476 -0.086 0.662 -0.251 l 11.352 -10.033 C 89.877 71.953 90 71.681 90 71.394 C 90 71.107 89.877 70.834 89.662 70.645 z M 78.648 79.208 v -15.63 l 8.842 7.815 L 78.648 79.208 z" style="stroke: none; stroke-width: 1; stroke-dasharray: none; stroke-linecap: butt; stroke-linejoin: miter; stroke-miterlimit: 10; fill: rgb(255,255,255); fill-rule: nonzero; opacity: 1;" transform=" matrix(1 0 0 1 0 0) " stroke-linecap="round"/>
</g>
</svg>