<svg xmlns="http://www.w3.org/2000/svg" xmlns:xlink="http://www.w3.org/1999/xlink" version="1.1" width="256" height="256" viewBox="0 0 256 256" xml:space="preserve">
<g style="stroke: none; stroke-width: 0; stroke-dasharray: none; stroke-linecap: butt; stroke-linejoin: miter; stroke-miterlimit: 10; fill: none; fill-rule: nonzero; opacity: 1;" transform="translate(0 -2.842170943040401e-14) scale(2.81 2.81)">
	<path d="M 45 90 C 20.187 90 0 69.814 0 45 C 0 20.187 20.187 0 45 0 c 24.814 0 45 20.187 45 45 C 90 69.814 69.814 90 45 90 z M 45 5.625 C 23.289 5.625 5.625 23.289 5.625 45 c 0 21.712 17.664 39.375 39.375 39.375 c 21.712 0 39.375 -17.663 39.375 -39.375 C 84.375 23.289 66.712 5.625 45 5.625 z" style="stroke: none; stroke-width: 1; stroke-dasharray: none; stroke-linecap: butt; stroke-linejoin: miter; stroke-miterlimit: 10; fill: rgb(0,0,0); fill-rule: nonzero; opacity: 1;" transform=" matrix(1 0 0 1 0 0) " stroke-linecap="round"/>
</g>
<g style="stroke: none; stroke-width: 0; stroke-dasharray: none; stroke-linecap: butt; stroke-linejoin: miter; stroke-miterlimit: 10; fill: none; fill-rule: nonzero; opacity: 1;" transform="translate(241.4189753908064 241.41897539080634) rotate(180) scale(2.52 2.52) matrix(1 0 0 -1 0 90)">
	<path d="M 69.245 38.312 c -1.104 0 -2 0.896 -2 2 v 6.505 c 0 12.266 -9.979 22.244 -22.245 22.244 s -22.245 -9.979 -22.245 -22.244 v -6.505 c 0 -1.104 -0.896 -2 -2 -2 s -2 0.896 -2 2 v 6.505 c 0 13.797 10.705 25.134 24.245 26.16 V 86 h -9.126 c -1.104 0 -2 0.896 -2 2 s 0.896 2 2 2 h 22.252 c 1.104 0 2 -0.896 2 -2 s -0.896 -2 -2 -2 H 47 V 72.978 c 13.54 -1.026 24.245 -12.363 24.245 -26.16 v -6.505 C 71.245 39.208 70.35 38.312 69.245 38.312 z" style="stroke: none; stroke-width: 1; stroke-dasharray: none; stroke-linecap: butt; stroke-linejoin: miter; stroke-miterlimit: 10; fill: rgb(0,0,0); fill-rule: nonzero; opacity: 1;" transform=" matrix(1 0 0 1 0 0) " stroke-linecap="round"/>
	<path d="M 45 59.809 c 8.481 0 15.382 -6.9 15.382 -15.382 V 15.382 C 60.382 6.9 53.481 0 45 0 S 29.618 6.9 29.618 15.382 v 29.044 C 29.618 52.908 36.519 59.809 45 59.809 z M 33.618 15.382 C 33.618 9.106 38.724 4 45 4 c 6.276 0 11.382 5.106 11.382 11.382 v 29.044 c 0 6.276 -5.105 11.382 -11.382 11.382 c -6.276 0 -11.382 -5.106 -11.382 -11.382 V 15.382 z" style="stroke: none; stroke-width: 1; stroke-dasharray: none; stroke-linecap: butt; stroke-linejoin: miter; stroke-miterlimit: 10; fill: rgb(0,0,0); fill-rule: nonzero; opacity: 1;" transform=" matrix(1 0 0 1 0 0) " stroke-linecap="round"/>
</g>
</svg>